<?xml version="1.0" encoding="UTF-8"?>
<svg width="102px" height="76px" viewBox="0 0 102 76" version="1.1" xmlns="http://www.w3.org/2000/svg" xmlns:xlink="http://www.w3.org/1999/xlink">
    <!-- Generator: Sketch 47.1 (45422) - http://www.bohemiancoding.com/sketch -->
    <title>taoche-logo-orange-full</title>
    <desc>Created with Sketch.</desc>
    <defs></defs>
    <g id="Page-1" stroke="none" stroke-width="1" fill="none" fill-rule="evenodd">
        <g id="taoche-logo-orange-full" transform="translate(-4.000000, -4.000000)">
            <rect id="Rectangle" x="0" y="0" width="110" height="82"></rect>
            <g id="Page-1" transform="translate(4.000000, 4.000000)" fill-rule="nonzero" fill="#FF6402">
                <path d="M83.6125429,53.5 C83.3927254,55.086225 81.9535617,56.3705029 80.3953713,56.3705029 C78.8391524,56.3705029 77.7528795,55.086225 77.9714649,53.5 C78.1902966,51.913775 79.6311853,50.6294971 81.1888828,50.6294971 C82.7460875,50.6294971 83.8313746,51.913775 83.6125429,53.5 M81.5513845,48 C78.5665985,48 75.8077907,50.4624732 75.3878703,53.5 C74.96795,56.5365236 77.0478372,59 80.0331161,59 C83.0179021,59 85.7769563,56.5365236 86.1971231,53.5 C86.6155649,50.4624732 84.5361705,48 81.5513845,48 M72.1665095,56.3705029 C70.6731307,56.3705029 69.6415658,55.086225 69.8603975,53.5 C70.0812007,51.913775 71.4676279,50.6284939 72.9590352,50.6284939 C73.7170605,50.6284939 74.354334,50.9612877 74.7715436,51.4942091 L76.2562972,49.0648397 C75.4541606,48.3979983 74.4100276,48 73.2168032,48 C70.2330029,48 67.4732094,50.4624732 67.0537819,53.5 C66.6343545,56.5365236 68.7137488,59 71.6995206,59 C72.892745,59 74.0467867,58.6009986 75.0327616,57.9341571 L74.2185499,55.5047877 C73.6544667,56.0387123 72.9240418,56.3705029 72.1665095,56.3705029 M97.2451686,48.5833295 L95.4181208,48.5833295 L94.7911974,49.5842187 C94.0607726,48.8371255 92.89367,48.5833295 91.7728966,48.5833295 L90.3975589,48.5833295 L90.4505418,48.1968674 L87.6446655,48.6390041 L86.2449309,58.7690256 L88.9916635,58.7690256 L90.1715806,50.2182071 L90.7524211,50.2182071 C92.7613359,50.2182071 92.7827755,51.9426155 92.6339305,53.02175 L91.8396797,58.7690256 L94.5849337,58.7690256 L95.4787431,52.2919612 C95.5992484,51.4219826 95.4910647,50.7448589 95.2328038,50.2182071 L96.2232145,50.2182071 C98.233115,50.2182071 98.2540618,51.9426155 98.1039846,53.02175 L97.2249612,58.7690256 L100.055727,58.7690256 L100.950522,52.2919612 C101.353192,49.3720533 99.2242651,48.5833295 97.2451686,48.5833295" id="Fill-1"></path>
                <path d="M6.59219807,53.9850187 L7.03218564,50.8781052 L9.78605205,50.8781052 L10.0737844,48.841359 L7.32091966,48.841359 L7.52726556,47.3844111 L4.17940341,47.8978827 L4.04567925,48.841359 L2.28898444,48.841359 L2,50.8781052 L3.75719565,50.8781052 L3.20051246,54.8109952 C2.7327283,58.1096843 5.20011447,59 7.49646393,59 L8.00206148,59 L8.8539896,57.1530421 L8.77285359,57.1530421 C6.4444504,57.1530421 6.4204101,55.2049797 6.59219807,53.9850187 M58.0251671,50.2615417 C59.1660796,50.1716158 60.0786093,50.9975923 60.3503148,52.2237637 L55.3339056,52.9814263 C55.6694681,51.522491 56.7778261,50.3596652 58.0251671,50.2615417 M57.6402719,56.6231751 C56.4988585,56.7140946 55.5860783,55.8881182 55.3143729,54.6619468 L63.0613594,53.4929106 L63.3180397,53.4541581 C63.339075,53.3061033 63.3586077,53.157055 63.3678732,53.0070129 C63.5501789,50.0064205 61.2195219,47.7704464 58.1616459,48.0124016 C55.1037698,48.2533631 52.480873,50.8813346 52.2998195,53.8809333 C52.1185155,56.8785447 54.4456666,59.1142704 57.5045443,58.8725636 C59.5865344,58.7091072 61.4669366,57.4359856 62.5126897,55.6951005 L59.9230986,54.9672476 C59.4089868,55.8943285 58.5640705,56.5508866 57.6402719,56.6231751 M17.7809542,53.3520599 C17.5585814,54.9232783 16.0936257,56.1954063 14.5109726,56.1954063 C12.9290708,56.1954063 11.8267229,54.9232783 12.0495965,53.3520599 C12.2717189,51.7808416 13.7351721,50.5087136 15.3175747,50.5087136 C16.8999774,50.5087136 18.0038278,51.7808416 17.7809542,53.3520599 M19.9583543,54.2955362 L21.3890025,48.0918941 L18.1112579,48.5176756 C17.413338,48.129653 16.5947157,47.9040931 15.6876952,47.9040931 C12.6548611,47.9040931 9.85066035,50.3432699 9.42244252,53.3520599 C8.9982314,56.3598563 11.1110231,58.8000268 14.1441076,58.8000268 C15.2709967,58.8000268 16.3620757,58.4559734 17.3151734,57.8779141 C17.9229422,58.3263013 18.7595947,58.5222999 19.6127749,58.5620462 L19.6160304,58.5580715 L20.4456712,56.7538409 C19.6731261,56.2127952 19.7767999,55.0847474 19.9583543,54.2955362 M29.454523,53.3520599 C29.231399,54.9232783 27.7666937,56.1954063 26.1852927,56.1954063 C24.6021388,56.1954063 23.4987892,54.9232783 23.7221637,53.3520599 C23.944286,51.7808416 25.4074888,50.5087136 26.9898915,50.5087136 C28.5732958,50.5087136 29.6771462,51.7808416 29.454523,53.3520599 M27.3590103,47.9040931 C24.3259258,47.9040931 21.5224763,50.3432699 21.0960114,53.3520599 C20.6705481,56.3598563 22.7830895,58.8000268 25.8161739,58.8000268 C28.8502601,58.8000268 31.6547113,56.3598563 32.0799241,53.3520599 C32.506389,50.3432699 30.3930964,47.9040931 27.3590103,47.9040931 M47.913216,48.481904 L45.9171199,48.481904 L46.2684589,46 L43.4171792,46.4369602 L41.6982977,58.5712375 L44.4879742,58.5712375 L45.687485,50.1013147 L46.8762277,50.1013147 C48.9176498,50.1013147 48.9389355,51.8094092 48.7869307,52.8783345 L47.980579,58.5712375 L50.7707562,58.5712375 L51.6795296,52.1554498 C52.0892164,49.2629175 49.925339,48.481904 47.913216,48.481904 M38.0684629,56.1954063 C36.5516702,56.1954063 35.5026618,54.9232783 35.7252849,53.3520599 C35.9474073,51.7808416 37.358022,50.5077199 38.8745642,50.5077199 C39.6446051,50.5077199 40.2926915,50.8373653 40.7161513,51.365245 L42.2244297,48.9588588 C41.4095637,48.2980777 40.3487855,47.9040931 39.1367537,47.9040931 C36.1034188,47.9040931 33.2974651,50.3432699 32.8730036,53.3520599 C32.445537,56.3598563 34.5605825,58.8000268 37.5931661,58.8000268 C38.8059492,58.8000268 39.978665,58.4048001 40.980845,57.745261 L40.1537085,55.3378812 C39.5802472,55.8667546 38.8387542,56.1954063 38.0684629,56.1954063 M65.4145542,55.1806352 C64.4073658,55.1806352 63.4755538,55.99121 63.3340666,56.9908278 C63.1935811,57.9892035 63.8955077,58.8000268 64.9029465,58.8000268 C65.9096341,58.8000268 66.8409453,57.9892035 66.9819316,56.9908278 C67.1231684,55.99121 66.4209913,55.1806352 65.4145542,55.1806352" id="Fill-3"></path>
                <g id="Group-7">
                    <path d="M70.7689242,8.4201754 L99.1778739,8.4201754 C101.109752,8.4201754 101.765417,3.98971247 101.765417,3.98971247 L72.2931607,3.98971247 C72.6907343,2.83537778 73.1271074,1.5660046 73.6135763,0.152216161 L65.0599745,0.152216161 C64.5747334,1.56254851 64.1376235,2.83192169 63.7390677,3.98971247 L58.4699292,3.98971247 L57.8515906,8.4201754 L62.2136034,8.4201754 C60.1589414,14.3885992 59.8085168,15.4029622 59.3114885,16.8419307 C57.6229674,21.7288446 59.2127704,24.9082023 65.7841526,24.9082023 L77.8378259,24.9082023 L76.7875343,32.4239678 L54.3242612,32.4239678 L53.7059226,36.8544308 L76.1682135,36.8544308 L75.4150584,42.2412437 L83.9686602,42.2412437 L84.7218153,36.8544308 L96.0547484,36.8544308 C97.9871178,36.8544308 98.6427826,32.4239678 98.6427826,32.4239678 L85.3411361,32.4239678 L86.3919188,24.9082023 L95.6800126,24.9082023 C97.6118909,24.9082023 98.2673102,20.4777394 98.2673102,20.4777394 L87.0114852,20.4777394 L87.8324169,14.6016426 L79.2793062,14.6016426 L78.4573923,20.4777394 L71.2910004,20.4777394 C68.0954325,20.4777394 67.1146365,19.0138376 68.1327587,16.0722097 C68.4893225,15.0376039 68.7646035,14.2417153 70.7689242,8.4201754 M14.0286241,13.726017 L19.156807,13.726017 L16.3568481,1.98048877 L7.51347678,1.98048877 C7.51347678,1.98048877 10.9843257,13.726017 14.0286241,13.726017 M13.094977,17.5124125 L6.13977304,17.5124125 C6.13977304,17.5124125 8.239865,19.7981236 9.13839592,21.5649271 C10.7372849,24.7079958 10.2095607,26.4975108 6.93934033,31.6498032 C2.90466881,38.0030876 9.82269389e-05,41.5137363 9.82269389e-05,41.5137363 L10.28716,41.5137363 C10.28716,41.5137363 13.8456764,35.3347378 15.5091496,30.8825508 C17.0788161,26.681918 17.5645483,24.1387281 15.5091496,20.7989091 C14.1015576,18.5038172 13.094977,17.5124125 13.094977,17.5124125 M34.4676855,3.39427721 L31.6085449,3.39427721 C32.5908143,1.58205074 33.2560562,0.153203616 33.2560562,0.153203616 L24.7076113,0.153203616 L20.4509469,10.8483268 L25.4266325,10.8483268 C26.4278106,10.8483268 27.68929,9.53229639 28.9048484,7.82474014 L32.8383462,7.82474014 C41.9523327,7.82474014 44.137391,11.2773759 42.965298,19.6603736 C42.7693353,21.0605846 41.8548425,27.6029665 41.5203797,29.9958164 C40.3721068,38.2089719 34.1784072,40.1125379 34.1784072,40.1125379 L38.2572808,42.6145016 C38.2572808,42.6145016 47.2627266,41.5887829 49.0381785,28.8859172 C49.3758336,26.4713433 50.2704354,20.0714017 50.5410507,18.1315467 C52.1205398,6.83432295 46.5923277,3.39427721 34.4676855,3.39427721 M39.0924554,31.753486 C39.1457435,31.3708473 39.3279545,30.0664194 39.3279545,30.0664194 L34.2452015,30.0664194 C34.2452015,30.0664194 34.106456,31.0612802 34.0568513,31.4152827 C33.9276829,32.338553 33.5040792,32.834749 32.5579083,32.834749 L31.9945768,32.834749 L32.7781822,27.2329178 L38.0716319,27.2329178 C40.0040014,27.2329178 40.6596662,22.8024549 40.6596662,22.8024549 L33.3977486,22.8024549 L33.9876014,18.589232 L40.1987363,18.589232 L39.9654473,14.1587691 L28.2707935,14.1587691 C28.4945054,13.44163 28.6268662,12.9622207 28.6268662,12.9622207 L22.0675168,12.9622207 L20.3807146,20.5416771 L24.896207,20.5416771 C25.4403843,20.5416771 26.033675,19.7048091 26.5847281,18.589232 L27.3965738,18.589232 L26.8072121,22.8024549 L19.5462768,22.8024549 L18.9267104,27.2329178 L26.1876457,27.2329178 L25.4052681,32.834749 L24.8424278,32.834749 C23.8967479,32.834749 23.6116442,32.338553 23.7405671,31.4152827 C23.7847692,31.1010252 23.9296539,30.0664194 23.9296539,30.0664194 L18.8464099,30.0664194 C18.8464099,30.0664194 18.6641989,31.3708473 18.6109108,31.753486 C18.157839,34.9908566 19.5155809,36.7223587 22.6229901,36.7223587 L23.7010307,36.7223587 L32.6129153,36.7223587 L33.690956,36.7223587 C36.7976285,36.7223587 38.6396292,34.9908566 39.0924554,31.753486" id="Fill-5"></path>
                </g>
            </g>
            <path d="M15.2890623,70.890625 L15.2890623,73.0390625 C15.2890623,73.5338566 15.0286482,73.78125 14.5078123,73.78125 L10.6406248,73.78125 C10.614583,73.8333336 10.5885416,73.8723957 10.5624998,73.8984375 C10.406249,74.1848973 10.2630212,74.3802078 10.1328123,74.484375 L15.0546873,74.484375 C15.6536486,74.5104168 15.9661455,74.7968723 15.9921873,75.34375 L15.9921873,76.1640625 C16.0442709,78.533866 15.0677181,79.4062531 13.0624998,78.78125 C12.8281236,78.6770828 12.7109373,78.5078137 12.7109373,78.2734375 C12.7630209,78.0911449 12.9192693,78 13.1796873,78 C14.6119861,78.5468777 15.3020834,77.9479254 15.2499998,76.203125 L15.2499998,75.4609375 C15.223958,75.2786449 15.132813,75.1744793 14.9765623,75.1484375 L14.2734373,75.1484375 C13.6744759,76.8411543 12.1770951,78.0911418 9.78124976,78.8984375 C9.52083179,78.9505211 9.33854195,78.8723969 9.23437476,78.6640625 C9.15624937,78.4036445 9.23437359,78.2343754 9.46874976,78.15625 C11.6041771,77.4791633 12.9453095,76.4765691 13.4921873,75.1484375 L11.9687498,75.1484375 C11.1354123,76.4765691 9.58594859,77.4531219 7.32031226,78.078125 C7.08593609,78.1302086 6.92968765,78.0651051 6.85156226,77.8828125 C6.77343687,77.6223945 6.85156109,77.4531254 7.08593726,77.375 C8.98698843,76.8802059 10.3151002,76.1380258 11.0703123,75.1484375 L9.46874976,75.1484375 C8.73957945,75.721357 7.97135796,76.1119781 7.16406226,76.3203125 C6.95572789,76.3723961 6.81250015,76.2942719 6.73437476,76.0859375 C6.68229117,75.8515613 6.74739468,75.6822922 6.92968726,75.578125 C8.15365171,75.2395816 9.07812164,74.6406293 9.70312476,73.78125 L8.68749976,73.78125 C8.11458023,73.8072918 7.84114546,73.5598984 7.86718726,73.0390625 L7.86718726,70.890625 C7.86718726,70.3958309 8.16666343,70.1354168 8.76562476,70.109375 L14.5468748,70.109375 C15.0416689,70.1354168 15.2890623,70.3958309 15.2890623,70.890625 Z M8.57031226,71.046875 L8.57031226,71.6328125 L14.5859373,71.6328125 L14.5859373,71.046875 C14.5598955,70.9427078 14.4947919,70.8776043 14.3906248,70.8515625 L8.80468726,70.8515625 C8.64843648,70.8776043 8.57031226,70.9427078 8.57031226,71.046875 Z M14.5859373,72.296875 L8.57031226,72.296875 L8.57031226,72.84375 C8.57031226,72.973959 8.64843648,73.0390625 8.80468726,73.0390625 L14.3906248,73.0390625 C14.5208337,73.0651043 14.5859373,73.0130215 14.5859373,72.8828125 L14.5859373,72.296875 Z M31.2046874,71.75 L29.2124999,71.75 L29.2124999,72.140625 L32.6499999,72.140625 C32.8322924,72.1666668 32.9364581,72.2708324 32.9624999,72.453125 C32.9624999,72.6614594 32.8713549,72.765625 32.6890624,72.765625 L29.2124999,72.765625 L29.2124999,73.703125 L30.4234374,73.703125 C30.5015627,73.5468742 30.5666663,73.3645844 30.6187499,73.15625 C30.6968752,72.9479156 30.8661444,72.8697914 31.1265624,72.921875 C31.3348967,73.0260422 31.413021,73.1953113 31.3609374,73.4296875 C31.3088538,73.5598965 31.2828124,73.6510414 31.2828124,73.703125 L32.4937499,73.703125 C32.728126,73.7291668 32.8453124,73.8333324 32.8453124,74.015625 C32.8453124,74.2239594 32.728126,74.328125 32.4937499,74.328125 L31.5171874,74.328125 C32.0901069,74.8489609 32.7671835,75.3437477 33.5484374,75.8125 C33.6786463,75.942709 33.6786463,76.1119781 33.5484374,76.3203125 C33.3921866,76.5026051 33.2359381,76.5286465 33.0796874,76.3984375 C33.001562,76.3723957 32.8583342,76.2812508 32.6499999,76.125 C32.5458327,76.0468746 32.4677085,75.9817711 32.4156249,75.9296875 C32.3635413,76.1380219 32.285417,76.2291668 32.1812499,76.203125 L31.4781249,76.203125 L31.4781249,76.59375 L33.0015624,76.59375 C33.1838549,76.6197918 33.2749999,76.7369781 33.2749999,76.9453125 C33.2489581,77.1276051 33.1447924,77.21875 32.9624999,77.21875 L31.4781249,77.21875 L31.4781249,78.390625 L31.8687499,78.390625 L32.1031249,77.609375 C32.1552085,77.4010406 32.2854155,77.3229164 32.4937499,77.375 C32.6500006,77.4531254 32.7151042,77.5963531 32.6890624,77.8046875 C32.6369788,77.9869801 32.6239581,78.0260422 32.6499999,77.921875 L32.5328124,78.390625 L33.4312499,78.390625 C33.6135424,78.390625 33.7177081,78.4947906 33.7437499,78.703125 C33.7177081,78.8854176 33.6135424,78.9895832 33.4312499,79.015625 L29.2515624,79.015625 C29.043228,78.9895832 28.9260417,78.8854176 28.8999999,78.703125 C28.8999999,78.4947906 29.0041655,78.390625 29.2124999,78.390625 L29.8374999,78.390625 C29.8114581,78.3385414 29.7984374,78.2864586 29.7984374,78.234375 C29.7723956,78.1302078 29.7333335,77.947918 29.6812499,77.6875 C29.6291663,77.5052074 29.6942698,77.3750004 29.8765624,77.296875 C30.0848967,77.2708332 30.2281245,77.3489574 30.3062499,77.53125 C30.3062499,77.6093754 30.3192706,77.7265617 30.3453124,77.8828125 C30.4234377,78.0911469 30.4755206,78.260416 30.5015624,78.390625 L30.8531249,78.390625 L30.8531249,77.21875 L29.4859374,77.21875 C29.277603,77.21875 29.1604167,77.1145844 29.1343749,76.90625 C29.1604167,76.7239574 29.277603,76.6197918 29.4859374,76.59375 L30.8531249,76.59375 L30.8531249,76.203125 L30.2281249,76.203125 C30.0718741,76.203125 29.9807292,76.0989594 29.9546874,75.890625 C29.9286456,75.9166668 29.8765627,75.9557289 29.7984374,76.0078125 C29.6682284,76.1119797 29.5640627,76.1901039 29.4859374,76.2421875 C29.2515612,76.3723965 29.0562506,76.3463551 28.8999999,76.1640625 C28.7958327,75.9817699 28.8479155,75.8125008 29.0562499,75.65625 C29.5250022,75.3697902 30.0328096,74.9270863 30.5796874,74.328125 L27.0640624,74.328125 C27.1421877,74.4322922 27.2463534,74.5364578 27.3765624,74.640625 C27.7411475,74.9791684 28.1708307,75.3046859 28.6656249,75.6171875 C28.8218756,75.7734383 28.8348963,75.9557281 28.7046874,76.1640625 C28.5744784,76.3203133 28.4182299,76.333334 28.2359374,76.203125 L28.1578124,76.203125 C27.9755198,76.072916 27.8713542,75.9687504 27.8453124,75.890625 C27.8192706,76.0989594 27.7411463,76.203125 27.6109374,76.203125 L26.9078124,76.203125 L26.9078124,76.59375 L28.1968749,76.59375 C28.4052092,76.6197918 28.5223956,76.7239574 28.5484374,76.90625 C28.5223956,77.1145844 28.4052092,77.21875 28.1968749,77.21875 L26.9078124,77.21875 L26.9078124,78.3125 C27.0380213,78.2864582 27.1942698,78.2604168 27.3765624,78.234375 L27.5718749,77.6484375 C27.6239585,77.4401031 27.7541655,77.3489582 27.9624999,77.375 C28.1447924,77.4531254 28.2229167,77.5963531 28.1968749,77.8046875 C28.1447913,77.9348965 28.1057292,78.0390621 28.0796874,78.1171875 C28.1838545,78.0911457 28.3270823,78.0651043 28.5093749,78.0390625 C28.6916674,78.0130207 28.8088538,78.0911449 28.8609374,78.2734375 C28.8869792,78.4817719 28.8088549,78.6119789 28.6265624,78.6640625 C27.5328069,78.8463551 26.2958401,79.0156242 24.9156249,79.171875 C24.7072905,79.171875 24.5901042,79.0807301 24.5640624,78.8984375 C24.5380206,78.6901031 24.6161448,78.5859375 24.7984374,78.5859375 C24.8244792,78.5598957 24.8635413,78.546875 24.9156249,78.546875 C25.019792,78.5208332 25.1369784,78.5208332 25.2671874,78.546875 C25.2411456,78.416666 25.176042,78.2083348 25.0718749,77.921875 C24.9937495,77.7135406 25.058853,77.5703129 25.2671874,77.4921875 C25.4755217,77.4661457 25.6187495,77.5442699 25.6968749,77.7265625 C25.7750002,77.9088551 25.8531245,78.1562484 25.9312499,78.46875 C26.035417,78.4427082 26.1526034,78.4296875 26.2828124,78.4296875 L26.2828124,77.21875 L24.9937499,77.21875 C24.7854155,77.21875 24.6682292,77.1145844 24.6421874,76.90625 C24.6682292,76.7239574 24.7854155,76.6197918 24.9937499,76.59375 L26.2828124,76.59375 L26.2828124,76.203125 L25.6968749,76.203125 C25.5406241,76.203125 25.4624999,76.0989594 25.4624999,75.890625 C25.3843745,75.9427086 25.2932295,76.0078121 25.1890624,76.0859375 C25.0328116,76.2161465 24.8765631,76.3203121 24.7203124,76.3984375 C24.4859362,76.5286465 24.3036463,76.5026051 24.1734374,76.3203125 C24.0692702,76.0859363 24.121353,75.9036465 24.3296874,75.7734375 C25.1109413,75.330727 25.7229143,74.8489609 26.1656249,74.328125 L25.2281249,74.328125 C24.9677069,74.328125 24.8374999,74.2239594 24.8374999,74.015625 C24.8374999,73.8333324 24.9677069,73.7291668 25.2281249,73.703125 L26.4390624,73.703125 C26.4130206,73.6510414 26.3609377,73.5338551 26.2828124,73.3515625 C26.1786452,73.1171863 26.2437487,72.9479172 26.4781249,72.84375 C26.712501,72.7656246 26.8947909,72.8437488 27.0249999,73.078125 C27.1031252,73.3125012 27.1812495,73.5208324 27.2593749,73.703125 L28.5484374,73.703125 L28.5484374,72.765625 L24.9937499,72.765625 C24.7593737,72.765625 24.6421874,72.6614594 24.6421874,72.453125 C24.6421874,72.2708324 24.7593737,72.1666668 24.9937499,72.140625 L28.5484374,72.140625 L28.5484374,71.75 L26.5562499,71.75 C26.4260409,71.75 26.334896,71.6718758 26.2828124,71.515625 C25.6578092,71.6979176 25.228126,71.8020832 24.9937499,71.828125 C24.7593737,71.8802086 24.6031252,71.8151051 24.5249999,71.6328125 C24.4989581,71.4244781 24.6031237,71.2812504 24.8374999,71.203125 C26.1656315,70.8645816 27.3374948,70.4218777 28.3531249,69.875 C28.6135428,69.6927074 28.9390604,69.6927074 29.3296874,69.875 C30.52761,70.4218777 31.6604112,70.8255195 32.7281249,71.0859375 C32.9364592,71.1640629 33.0276042,71.3072906 33.0015624,71.515625 C32.9494788,71.7239594 32.806251,71.8020836 32.5718749,71.75 C32.3374987,71.7239582 32.1161467,71.6718754 31.9078124,71.59375 C31.699478,71.5156246 31.5432295,71.4635418 31.4390624,71.4375 C31.4390624,71.6458344 31.3609381,71.75 31.2046874,71.75 Z M27.3765624,71.0859375 L30.5406249,71.0859375 C29.9416635,70.8776031 29.525001,70.7213547 29.2906249,70.6171875 C29.0562487,70.5130203 28.9260417,70.4609375 28.8999999,70.4609375 C28.7958327,70.4869793 28.6395842,70.5390621 28.4312499,70.6171875 C28.0927065,70.7994801 27.7411475,70.9557285 27.3765624,71.0859375 Z M30.3453124,75.578125 L31.9468749,75.578125 C31.7645823,75.4739578 31.6213545,75.3567715 31.5171874,75.2265625 L31.1265624,74.9140625 C31.1005206,74.9140625 31.0093756,74.9921867 30.8531249,75.1484375 C30.6447905,75.3307301 30.4755213,75.4739578 30.3453124,75.578125 Z M25.8531249,75.578125 L27.3765624,75.578125 C27.3244788,75.5520832 27.272396,75.5130211 27.2203124,75.4609375 C26.8557272,75.1484359 26.647396,74.9791668 26.5953124,74.953125 C26.5692706,74.953125 26.5171877,74.9921871 26.4390624,75.0703125 C26.2567698,75.2526051 26.0614592,75.4218742 25.8531249,75.578125 Z M50.3234375,71.5546875 L46.76875,71.5546875 L46.76875,72.1796875 L50.128125,72.1796875 C50.3104175,72.2057293 50.4145832,72.3229156 50.440625,72.53125 C50.4145832,72.7135426 50.2973968,72.8046875 50.0890625,72.8046875 L46.76875,72.8046875 L46.76875,73.4296875 L50.1671875,73.4296875 C50.34948,73.4557293 50.4536457,73.5729156 50.4796875,73.78125 C50.4536457,73.9635426 50.3364593,74.0546875 50.128125,74.0546875 L46.76875,74.0546875 L46.76875,74.71875 L50.4796875,74.71875 C50.66198,74.7447918 50.7661457,74.8619781 50.7921875,75.0703125 C50.7661457,75.2786469 50.66198,75.3828125 50.4796875,75.3828125 L46.76875,75.3828125 L46.76875,76.0078125 L50.7921875,76.0078125 C50.97448,76.0338543 51.0786457,76.1510406 51.1046875,76.359375 C51.0786457,76.5416676 50.9614593,76.6328125 50.753125,76.6328125 L47.08125,76.6328125 C48.4614652,77.4921918 49.7114527,78.0130199 50.83125,78.1953125 C51.1177097,78.2734379 51.234896,78.442707 51.1828125,78.703125 C51.0786453,78.9114594 50.870314,78.9895836 50.5578125,78.9375 C49.1775972,78.4947895 47.914589,77.9088578 46.76875,77.1796875 L46.76875,78.8203125 C46.7427082,79.0026051 46.6255218,79.1067707 46.4171875,79.1328125 C46.2088531,79.1328125 46.1046875,79.0286469 46.1046875,78.8203125 L46.1046875,77.1796875 C45.1932246,77.8567742 43.8651128,78.4166645 42.1203125,78.859375 C41.8078109,78.9114586 41.6125003,78.8203137 41.534375,78.5859375 C41.4822914,78.3255195 41.6124984,78.1692711 41.925,78.1171875 C43.5395914,77.8307277 44.828641,77.335941 45.7921875,76.6328125 L42.003125,76.6328125 C41.742707,76.6328125 41.6125,76.5286469 41.6125,76.3203125 C41.6125,76.1380199 41.742707,76.0338543 42.003125,76.0078125 L46.1046875,76.0078125 L46.1046875,75.3828125 L43.253125,75.3828125 C43.2270832,75.6171887 43.1098968,75.734375 42.9015625,75.734375 C42.6932281,75.734375 42.5890625,75.6171887 42.5890625,75.3828125 L42.5890625,72.3359375 C42.4848953,72.4661465 42.3546882,72.5963535 42.1984375,72.7265625 L42.1203125,72.765625 C41.8859363,72.9479176 41.6906257,72.9609383 41.534375,72.8046875 C41.404166,72.6223949 41.4432281,72.4270844 41.6515625,72.21875 C42.2505238,71.7499977 42.810414,71.0599004 43.33125,70.1484375 C43.4875007,69.8880195 43.6828113,69.7968746 43.9171875,69.875 C44.1255218,69.9791672 44.1645839,70.1744777 44.034375,70.4609375 C44.0083332,70.5130211 43.9562503,70.604166 43.878125,70.734375 L43.8,70.890625 L46.1046875,70.890625 C46.0265621,70.7343742 45.9354171,70.526043 45.83125,70.265625 C45.7270828,70.0572906 45.7661449,69.8880215 45.9484375,69.7578125 C46.1567718,69.7057289 46.3390617,69.7838531 46.4953125,69.9921875 C46.5994796,70.2265637 46.7296867,70.5260398 46.8859375,70.890625 L50.3234375,70.890625 C50.50573,70.9166668 50.6098957,71.0338531 50.6359375,71.2421875 C50.6098957,71.4505219 50.50573,71.5546875 50.3234375,71.5546875 Z M46.1046875,71.5546875 L43.565625,71.5546875 C43.3312488,71.5546875 43.2270832,71.6718738 43.253125,71.90625 L43.253125,72.1796875 L46.1046875,72.1796875 L46.1046875,71.5546875 Z M43.253125,72.8046875 L43.253125,73.4296875 L46.1046875,73.4296875 L46.1046875,72.8046875 L43.253125,72.8046875 Z M43.253125,74.71875 L46.1046875,74.71875 L46.1046875,74.0546875 L43.253125,74.0546875 L43.253125,74.71875 Z M60.4578125,70.265625 L66.98125,70.265625 C67.632295,70.2135414 67.9317711,70.5130176 67.8796875,71.1640625 L67.8796875,77.8046875 C67.9057293,78.377607 67.6062532,78.6510418 66.98125,78.625 L60.4578125,78.625 C59.8067676,78.6510418 59.5072915,78.377607 59.559375,77.8046875 L59.559375,71.1640625 C59.5072915,70.5130176 59.8067676,70.2135414 60.4578125,70.265625 Z M66.825,71.0078125 L60.653125,71.0078125 C60.4187489,71.0078125 60.3015625,71.1249988 60.3015625,71.359375 L60.3015625,77.5703125 C60.2755208,77.8307305 60.3927071,77.9479168 60.653125,77.921875 L66.825,77.921875 C67.0593762,77.921875 67.1765625,77.8046887 67.1765625,77.5703125 L67.1765625,71.359375 C67.1765625,71.1249988 67.0593762,71.0078125 66.825,71.0078125 Z M65.2234375,71.515625 L65.2234375,72.4140625 L66.434375,72.4140625 C66.6427094,72.4401043 66.7598958,72.5703113 66.7859375,72.8046875 C66.7598958,73.0390637 66.6427094,73.15625 66.434375,73.15625 L65.2234375,73.15625 L65.2234375,76.515625 C65.2494793,77.4791715 64.5984442,77.765627 63.2703125,77.375 C63.0359364,77.3229164 62.9317708,77.1796887 62.9578125,76.9453125 C63.0098961,76.7369781 63.1661446,76.6458332 63.4265625,76.671875 C64.2078165,76.9062512 64.5593754,76.7760441 64.48125,76.28125 L64.48125,73.546875 C63.8041633,74.7447977 62.7625071,75.7213504 61.35625,76.4765625 C61.0958321,76.6328133 60.9005215,76.5937512 60.7703125,76.359375 C60.6921872,76.1249988 60.7833321,75.942709 61.04375,75.8125 C62.3458399,75.0833297 63.2963512,74.1979219 63.8953125,73.15625 L61.121875,73.15625 C60.8874989,73.15625 60.7703125,73.0390637 60.7703125,72.8046875 C60.7703125,72.5703113 60.8874989,72.4401043 61.121875,72.4140625 L64.48125,72.4140625 L64.48125,71.515625 C64.48125,71.2812488 64.5984364,71.1640625 64.8328125,71.1640625 C65.0671887,71.1640625 65.1973958,71.2812488 65.2234375,71.515625 Z M84.6156251,71.7109375 L84.6156251,72.296875 L85.3187501,72.296875 C85.5010427,72.3229168 85.6052083,72.4401031 85.6312501,72.6484375 C85.6052083,72.8828137 85.5010427,73 85.3187501,73 L84.6156251,73 L84.6156251,76.359375 L85.4359376,76.359375 C85.774481,76.5937512 85.774481,76.8281238 85.4359376,77.0625 L80.1625001,77.0625 C79.797915,76.8281238 79.797915,76.5937512 80.1625001,76.359375 L80.6312501,76.359375 L80.6312501,73 L80.0843751,73 C79.9020826,73 79.7979169,72.8828137 79.7718751,72.6484375 C79.7979169,72.4401031 79.9020826,72.3229168 80.0843751,72.296875 L80.6312501,72.296875 L80.6312501,71.7109375 C80.8656263,71.3723941 81.1130197,71.3723941 81.3734376,71.7109375 L81.3734376,72.296875 L83.8734376,72.296875 L83.8734376,71.7109375 C84.1078138,71.3203105 84.3552072,71.3203105 84.6156251,71.7109375 Z M81.3734376,73 L81.3734376,73.6640625 L83.8734376,73.6640625 L83.8734376,73 L81.3734376,73 Z M83.8734376,74.328125 L81.3734376,74.328125 L81.3734376,74.9921875 L83.8734376,74.9921875 L83.8734376,74.328125 Z M81.3734376,75.6953125 L81.3734376,76.359375 L83.8734376,76.359375 L83.8734376,75.6953125 L81.3734376,75.6953125 Z M83.8734376,77.3359375 C84.4203154,77.5703137 85.0583298,77.9348934 85.7875001,78.4296875 C85.9177091,78.5338547 85.9307298,78.6901031 85.8265626,78.8984375 C85.6963537,79.0807301 85.5531259,79.1328129 85.3968751,79.0546875 C84.6156212,78.5338516 84.0166689,78.1822926 83.6000001,78 C83.3916658,77.8958328 83.3135415,77.7395844 83.3656251,77.53125 C83.4697923,77.3229156 83.6390615,77.2578121 83.8734376,77.3359375 Z M81.3734376,77.4140625 C81.5557302,77.3098953 81.7249994,77.3359367 81.8812501,77.4921875 C82.0114591,77.6744801 81.9984384,77.8437492 81.8421876,78 C81.2953099,78.4166687 80.6182333,78.755207 79.8109376,79.015625 C79.6026033,79.0416668 79.4463548,78.9635426 79.3421876,78.78125 C79.2640623,78.5729156 79.3161451,78.4427086 79.4984376,78.390625 C80.0192736,78.1562488 80.6052052,77.8567727 81.2562501,77.4921875 C81.3083337,77.4661457 81.3473958,77.4401043 81.3734376,77.4140625 Z M80.9828126,70.5390625 L85.2406251,70.5390625 C85.4489595,70.5651043 85.5661458,70.6822906 85.5921876,70.890625 C85.5661458,71.1250012 85.4489595,71.2421875 85.2406251,71.2421875 L80.7093751,71.2421875 C80.4489572,71.6328145 80.2276052,71.9192699 80.0453126,72.1015625 C79.8369783,72.3098969 79.6416677,72.348959 79.4593751,72.21875 C79.2770826,72.0624992 79.2640619,71.8802094 79.4203126,71.671875 C79.8109396,71.281248 80.1364572,70.7343785 80.3968751,70.03125 C80.4489587,69.8749992 80.5921865,69.8229164 80.8265626,69.875 C81.034897,69.9270836 81.1260419,70.0442699 81.1000001,70.2265625 C81.0739583,70.3307297 81.0348962,70.4348953 80.9828126,70.5390625 Z M79.1468751,71.8671875 L77.9750001,71.8671875 L77.9750001,73.078125 L78.7953126,73.078125 C79.3161486,73.078125 79.5635419,73.3255184 79.5375001,73.8203125 L79.5375001,74.953125 C79.5375001,76.6458418 79.4203138,77.7135395 79.1859376,78.15625 C78.9776033,78.6770859 78.5218787,78.8984379 77.8187501,78.8203125 C77.5583322,78.7682289 77.4151044,78.6250012 77.3890626,78.390625 C77.4151044,78.130207 77.5583322,78.0130207 77.8187501,78.0390625 C78.2354189,78.1171879 78.495833,77.9869809 78.6000001,77.6484375 C78.7302091,77.2838523 78.7953126,76.4114652 78.7953126,75.03125 L78.7953126,74.0546875 C78.7953126,73.8984367 78.7171884,73.8203125 78.5609376,73.8203125 L77.9359376,73.8203125 C77.9359376,75.7474055 77.6234408,77.3619727 76.9984376,78.6640625 C76.8682287,78.8463551 76.6859388,78.9114586 76.4515626,78.859375 C76.2692701,78.7552078 76.2171873,78.5989594 76.2953126,78.390625 C76.9463576,77.0364516 77.2588544,75.5130293 77.2328126,73.8203125 L77.2328126,71.8671875 L76.7250001,71.8671875 C76.5166658,71.8671875 76.3994794,71.7500012 76.3734376,71.515625 C76.3994794,71.2812488 76.5166658,71.1510418 76.7250001,71.125 L77.5843751,71.125 C77.5583333,71.0729164 77.5062505,70.9557301 77.4281251,70.7734375 C77.323958,70.5911449 77.2718751,70.4609379 77.2718751,70.3828125 C77.167708,70.2005199 77.2328115,70.0442715 77.4671876,69.9140625 C77.7015638,69.8359371 77.870833,69.8880199 77.9750001,70.0703125 C78.1312509,70.4088559 78.2744787,70.7604148 78.4046876,71.125 L79.1468751,71.125 C79.4854185,71.385418 79.4854185,71.6328113 79.1468751,71.8671875 Z M98.6171877,73.4079863 L98.6171877,78.78125 C98.3046862,79.1979187 98.0182307,79.184898 97.7578127,78.7421875 L97.7578127,71.1640625 L94.1250002,71.1640625 C93.8645823,71.1640625 93.7343752,71.0338555 93.7343752,70.7734375 C93.7343752,70.5130195 93.8645823,70.3697918 94.1250002,70.34375 L102.835938,70.34375 C103.070314,70.3697918 103.1875,70.5130195 103.1875,70.7734375 C103.161458,71.0338555 103.031251,71.1640625 102.796875,71.1640625 L98.6171877,71.1640625 L98.6171877,72.4921875 C100.38803,73.6380266 101.546873,74.4713516 102.09375,74.9921875 C102.302085,75.2265637 102.341147,75.4479156 102.210938,75.65625 C102.054687,75.8385426 101.859376,75.8385426 101.625,75.65625 C100.16666,74.5104109 99.2161483,73.807293 98.7734377,73.546875 C98.6866321,73.4774305 98.6345489,73.4311344 98.6171877,73.4079863 L98.6171877,73.4079863 Z" id="易鑫集团旗下" fill="#FF6402" fill-rule="nonzero"></path>
        </g>
    </g>
</svg>