<?xml version="1.0" encoding="UTF-8"?>
<svg width="120px" height="77px" viewBox="0 0 120 77" version="1.1" xmlns="http://www.w3.org/2000/svg" xmlns:xlink="http://www.w3.org/1999/xlink">
    <!-- Generator: Sketch 47.1 (45422) - http://www.bohemiancoding.com/sketch -->
    <title>淘车logo</title>
    <desc>Created with Sketch.</desc>
    <defs>
        <polygon id="path-1" points="107.846198 0.163951445 107.846198 45.8999168 0.000104096386 45.8999168 0.000104096386 0.163951445"></polygon>
    </defs>
    <g id="Symbols" stroke="none" stroke-width="1" fill="none" fill-rule="evenodd">
        <g id="淘车logo">
            <g>
                <rect id="Rectangle-2" x="0" y="0" width="120" height="77"></rect>
                <path d="M9.07204882,67.890625 L9.07204882,70.0390625 C9.07204882,70.5338566 8.81163476,70.78125 8.29079882,70.78125 L4.42361132,70.78125 C4.39756952,70.8333336 4.37152812,70.8723957 4.34548632,70.8984375 C4.18923554,71.1848973 4.04600781,71.3802078 3.91579882,71.484375 L8.83767382,71.484375 C9.43663515,71.5104168 9.74913202,71.7968723 9.77517382,72.34375 L9.77517382,73.1640625 C9.82725741,75.533866 8.85070468,76.4062531 6.84548632,75.78125 C6.61111015,75.6770828 6.49392382,75.5078137 6.49392382,75.2734375 C6.54600741,75.0911449 6.70225585,75 6.96267382,75 C8.39497265,75.5468777 9.08506991,74.9479254 9.03298632,73.203125 L9.03298632,72.4609375 C9.00694452,72.2786449 8.9157996,72.1744793 8.75954882,72.1484375 L8.05642382,72.1484375 C7.45746249,73.8411543 5.96008163,75.0911418 3.56423632,75.8984375 C3.30381835,75.9505211 3.12152851,75.8723969 3.01736132,75.6640625 C2.93923593,75.4036445 3.01736015,75.2343754 3.25173632,75.15625 C5.38716366,74.4791633 6.72829609,73.4765691 7.27517382,72.1484375 L5.75173632,72.1484375 C4.91839882,73.4765691 3.36893515,74.4531219 1.10329882,75.078125 C0.868922649,75.1302086 0.712674212,75.0651051 0.634548821,74.8828125 C0.556423431,74.6223945 0.634547649,74.4531254 0.868923821,74.375 C2.76997499,73.8802059 4.09808671,73.1380258 4.85329882,72.1484375 L3.25173632,72.1484375 C2.52256601,72.721357 1.75434452,73.1119781 0.947048821,73.3203125 C0.738714446,73.3723961 0.595486712,73.2942719 0.517361321,73.0859375 C0.465277727,72.8515613 0.530381243,72.6822922 0.712673821,72.578125 C1.93663827,72.2395816 2.8611082,71.6406293 3.48611132,70.78125 L2.47048632,70.78125 C1.89756679,70.8072918 1.62413202,70.5598984 1.65017382,70.0390625 L1.65017382,67.890625 C1.65017382,67.3958309 1.94964999,67.1354168 2.54861132,67.109375 L8.32986132,67.109375 C8.82465546,67.1354168 9.07204882,67.3958309 9.07204882,67.890625 Z M2.35329882,68.046875 L2.35329882,68.6328125 L8.36892382,68.6328125 L8.36892382,68.046875 C8.34288202,67.9427078 8.27777851,67.8776043 8.17361132,67.8515625 L2.58767382,67.8515625 C2.43142304,67.8776043 2.35329882,67.9427078 2.35329882,68.046875 Z M8.36892382,69.296875 L2.35329882,69.296875 L2.35329882,69.84375 C2.35329882,69.973959 2.43142304,70.0390625 2.58767382,70.0390625 L8.17361132,70.0390625 C8.30382031,70.0651043 8.36892382,70.0130215 8.36892382,69.8828125 L8.36892382,69.296875 Z M18.3876738,68.75 L16.3954863,68.75 L16.3954863,69.140625 L19.8329863,69.140625 C20.0152789,69.1666668 20.1194445,69.2708324 20.1454863,69.453125 C20.1454863,69.6614594 20.0543414,69.765625 19.8720488,69.765625 L16.3954863,69.765625 L16.3954863,70.703125 L17.6064238,70.703125 C17.6845492,70.5468742 17.7496527,70.3645844 17.8017363,70.15625 C17.8798617,69.9479156 18.0491309,69.8697914 18.3095488,69.921875 C18.5178832,70.0260422 18.5960074,70.1953113 18.5439238,70.4296875 C18.4918402,70.5598965 18.4657988,70.6510414 18.4657988,70.703125 L19.6767363,70.703125 C19.9111125,70.7291668 20.0282988,70.8333324 20.0282988,71.015625 C20.0282988,71.2239594 19.9111125,71.328125 19.6767363,71.328125 L18.7001738,71.328125 C19.2730934,71.8489609 19.9501699,72.3437477 20.7314238,72.8125 C20.8616328,72.942709 20.8616328,73.1119781 20.7314238,73.3203125 C20.5751731,73.5026051 20.4189246,73.5286465 20.2626738,73.3984375 C20.1845484,73.3723957 20.0413207,73.2812508 19.8329863,73.125 C19.7288191,73.0468746 19.6506949,72.9817711 19.5986113,72.9296875 C19.5465277,73.1380219 19.4684035,73.2291668 19.3642363,73.203125 L18.6611113,73.203125 L18.6611113,73.59375 L20.1845488,73.59375 C20.3668414,73.6197918 20.4579863,73.7369781 20.4579863,73.9453125 C20.4319445,74.1276051 20.3277789,74.21875 20.1454863,74.21875 L18.6611113,74.21875 L18.6611113,75.390625 L19.0517363,75.390625 L19.2861113,74.609375 C19.3381949,74.4010406 19.468402,74.3229164 19.6767363,74.375 C19.8329871,74.4531254 19.8980906,74.5963531 19.8720488,74.8046875 C19.8199652,74.9869801 19.8069445,75.0260422 19.8329863,74.921875 L19.7157988,75.390625 L20.6142363,75.390625 C20.7965289,75.390625 20.9006945,75.4947906 20.9267363,75.703125 C20.9006945,75.8854176 20.7965289,75.9895832 20.6142363,76.015625 L16.4345488,76.015625 C16.2262145,75.9895832 16.1090281,75.8854176 16.0829863,75.703125 C16.0829863,75.4947906 16.187152,75.390625 16.3954863,75.390625 L17.0204863,75.390625 C16.9944445,75.3385414 16.9814238,75.2864586 16.9814238,75.234375 C16.955382,75.1302078 16.9163199,74.947918 16.8642363,74.6875 C16.8121527,74.5052074 16.8772563,74.3750004 17.0595488,74.296875 C17.2678832,74.2708332 17.4111109,74.3489574 17.4892363,74.53125 C17.4892363,74.6093754 17.502257,74.7265617 17.5282988,74.8828125 C17.6064242,75.0911469 17.658507,75.260416 17.6845488,75.390625 L18.0361113,75.390625 L18.0361113,74.21875 L16.6689238,74.21875 C16.4605895,74.21875 16.3434031,74.1145844 16.3173613,73.90625 C16.3434031,73.7239574 16.4605895,73.6197918 16.6689238,73.59375 L18.0361113,73.59375 L18.0361113,73.203125 L17.4111113,73.203125 C17.2548606,73.203125 17.1637156,73.0989594 17.1376738,72.890625 C17.111632,72.9166668 17.0595492,72.9557289 16.9814238,73.0078125 C16.8512148,73.1119797 16.7470492,73.1901039 16.6689238,73.2421875 C16.4345477,73.3723965 16.2392371,73.3463551 16.0829863,73.1640625 C15.9788191,72.9817699 16.030902,72.8125008 16.2392363,72.65625 C16.7079887,72.3697902 17.2157961,71.9270863 17.7626738,71.328125 L14.2470488,71.328125 C14.3251742,71.4322922 14.4293398,71.5364578 14.5595488,71.640625 C14.924134,71.9791684 15.3538172,72.3046859 15.8486113,72.6171875 C16.0048621,72.7734383 16.0178828,72.9557281 15.8876738,73.1640625 C15.7574648,73.3203133 15.6012164,73.333334 15.4189238,73.203125 L15.3407988,73.203125 C15.1585063,73.072916 15.0543406,72.9687504 15.0282988,72.890625 C15.002257,73.0989594 14.9241328,73.203125 14.7939238,73.203125 L14.0907988,73.203125 L14.0907988,73.59375 L15.3798613,73.59375 C15.5881957,73.6197918 15.705382,73.7239574 15.7314238,73.90625 C15.705382,74.1145844 15.5881957,74.21875 15.3798613,74.21875 L14.0907988,74.21875 L14.0907988,75.3125 C14.2210078,75.2864582 14.3772563,75.2604168 14.5595488,75.234375 L14.7548613,74.6484375 C14.8069449,74.4401031 14.937152,74.3489582 15.1454863,74.375 C15.3277789,74.4531254 15.4059031,74.5963531 15.3798613,74.8046875 C15.3277777,74.9348965 15.2887156,75.0390621 15.2626738,75.1171875 C15.366841,75.0911457 15.5100688,75.0651043 15.6923613,75.0390625 C15.8746539,75.0130207 15.9918402,75.0911449 16.0439238,75.2734375 C16.0699656,75.4817719 15.9918414,75.6119789 15.8095488,75.6640625 C14.7157934,75.8463551 13.4788266,76.0156242 12.0986113,76.171875 C11.890277,76.171875 11.7730906,76.0807301 11.7470488,75.8984375 C11.721007,75.6901031 11.7991313,75.5859375 11.9814238,75.5859375 C12.0074656,75.5598957 12.0465277,75.546875 12.0986113,75.546875 C12.2027785,75.5208332 12.3199648,75.5208332 12.4501738,75.546875 C12.424132,75.416666 12.3590285,75.2083348 12.2548613,74.921875 C12.1767359,74.7135406 12.2418395,74.5703129 12.4501738,74.4921875 C12.6585082,74.4661457 12.8017359,74.5442699 12.8798613,74.7265625 C12.9579867,74.9088551 13.0361109,75.1562484 13.1142363,75.46875 C13.2184035,75.4427082 13.3355898,75.4296875 13.4657988,75.4296875 L13.4657988,74.21875 L12.1767363,74.21875 C11.968402,74.21875 11.8512156,74.1145844 11.8251738,73.90625 C11.8512156,73.7239574 11.968402,73.6197918 12.1767363,73.59375 L13.4657988,73.59375 L13.4657988,73.203125 L12.8798613,73.203125 C12.7236106,73.203125 12.6454863,73.0989594 12.6454863,72.890625 C12.5673609,72.9427086 12.476216,73.0078121 12.3720488,73.0859375 C12.2157981,73.2161465 12.0595496,73.3203121 11.9032988,73.3984375 C11.6689227,73.5286465 11.4866328,73.5026051 11.3564238,73.3203125 C11.2522566,73.0859363 11.3043395,72.9036465 11.5126738,72.7734375 C12.2939277,72.330727 12.9059008,71.8489609 13.3486113,71.328125 L12.4111113,71.328125 C12.1506934,71.328125 12.0204863,71.2239594 12.0204863,71.015625 C12.0204863,70.8333324 12.1506934,70.7291668 12.4111113,70.703125 L13.6220488,70.703125 C13.596007,70.6510414 13.5439242,70.5338551 13.4657988,70.3515625 C13.3616316,70.1171863 13.4267352,69.9479172 13.6611113,69.84375 C13.8954875,69.7656246 14.0777773,69.8437488 14.2079863,70.078125 C14.2861117,70.3125012 14.3642359,70.5208324 14.4423613,70.703125 L15.7314238,70.703125 L15.7314238,69.765625 L12.1767363,69.765625 C11.9423602,69.765625 11.8251738,69.6614594 11.8251738,69.453125 C11.8251738,69.2708324 11.9423602,69.1666668 12.1767363,69.140625 L15.7314238,69.140625 L15.7314238,68.75 L13.7392363,68.75 C13.6090273,68.75 13.5178824,68.6718758 13.4657988,68.515625 C12.8407957,68.6979176 12.4111125,68.8020832 12.1767363,68.828125 C11.9423602,68.8802086 11.7861117,68.8151051 11.7079863,68.6328125 C11.6819445,68.4244781 11.7861102,68.2812504 12.0204863,68.203125 C13.348618,67.8645816 14.5204813,67.4218777 15.5361113,66.875 C15.7965293,66.6927074 16.1220469,66.6927074 16.5126738,66.875 C17.7105965,67.4218777 18.8433977,67.8255195 19.9111113,68.0859375 C20.1194457,68.1640629 20.2105906,68.3072906 20.1845488,68.515625 C20.1324652,68.7239594 19.9892375,68.8020836 19.7548613,68.75 C19.5204852,68.7239582 19.2991332,68.6718754 19.0907988,68.59375 C18.8824645,68.5156246 18.726216,68.4635418 18.6220488,68.4375 C18.6220488,68.6458344 18.5439246,68.75 18.3876738,68.75 Z M14.5595488,68.0859375 L17.7236113,68.0859375 C17.12465,67.8776031 16.7079875,67.7213547 16.4736113,67.6171875 C16.2392352,67.5130203 16.1090281,67.4609375 16.0829863,67.4609375 C15.9788191,67.4869793 15.8225707,67.5390621 15.6142363,67.6171875 C15.275693,67.7994801 14.924134,67.9557285 14.5595488,68.0859375 Z M17.5282988,72.578125 L19.1298613,72.578125 C18.9475688,72.4739578 18.804341,72.3567715 18.7001738,72.2265625 L18.3095488,71.9140625 C18.283507,71.9140625 18.1923621,71.9921867 18.0361113,72.1484375 C17.827777,72.3307301 17.6585078,72.4739578 17.5282988,72.578125 Z M13.0361113,72.578125 L14.5595488,72.578125 C14.5074652,72.5520832 14.4553824,72.5130211 14.4032988,72.4609375 C14.0387137,72.1484359 13.8303824,71.9791668 13.7782988,71.953125 C13.752257,71.953125 13.7001742,71.9921871 13.6220488,72.0703125 C13.4397563,72.2526051 13.2444457,72.4218742 13.0361113,72.578125 Z M30.3986113,68.7109375 L30.3986113,69.296875 L31.1017363,69.296875 C31.2840289,69.3229168 31.3881945,69.4401031 31.4142363,69.6484375 C31.3881945,69.8828137 31.2840289,70 31.1017363,70 L30.3986113,70 L30.3986113,73.359375 L31.2189238,73.359375 C31.5574672,73.5937512 31.5574672,73.8281238 31.2189238,74.0625 L25.9454863,74.0625 C25.5809012,73.8281238 25.5809012,73.5937512 25.9454863,73.359375 L26.4142363,73.359375 L26.4142363,70 L25.8673613,70 C25.6850688,70 25.5809031,69.8828137 25.5548613,69.6484375 C25.5809031,69.4401031 25.6850688,69.3229168 25.8673613,69.296875 L26.4142363,69.296875 L26.4142363,68.7109375 C26.6486125,68.3723941 26.8960059,68.3723941 27.1564238,68.7109375 L27.1564238,69.296875 L29.6564238,69.296875 L29.6564238,68.7109375 C29.8908,68.3203105 30.1381934,68.3203105 30.3986113,68.7109375 Z M27.1564238,70 L27.1564238,70.6640625 L29.6564238,70.6640625 L29.6564238,70 L27.1564238,70 Z M29.6564238,71.328125 L27.1564238,71.328125 L27.1564238,71.9921875 L29.6564238,71.9921875 L29.6564238,71.328125 Z M27.1564238,72.6953125 L27.1564238,73.359375 L29.6564238,73.359375 L29.6564238,72.6953125 L27.1564238,72.6953125 Z M29.6564238,74.3359375 C30.2033016,74.5703137 30.841316,74.9348934 31.5704863,75.4296875 C31.7006953,75.5338547 31.713716,75.6901031 31.6095488,75.8984375 C31.4793399,76.0807301 31.3361121,76.1328129 31.1798613,76.0546875 C30.3986074,75.5338516 29.7996551,75.1822926 29.3829863,75 C29.174652,74.8958328 29.0965278,74.7395844 29.1486113,74.53125 C29.2527785,74.3229156 29.4220477,74.2578121 29.6564238,74.3359375 Z M27.1564238,74.4140625 C27.3387164,74.3098953 27.5079856,74.3359367 27.6642363,74.4921875 C27.7944453,74.6744801 27.7814246,74.8437492 27.6251738,75 C27.0782961,75.4166687 26.4012195,75.755207 25.5939238,76.015625 C25.3855895,76.0416668 25.229341,75.9635426 25.1251738,75.78125 C25.0470485,75.5729156 25.0991313,75.4427086 25.2814238,75.390625 C25.8022598,75.1562488 26.3881914,74.8567727 27.0392363,74.4921875 C27.0913199,74.4661457 27.130382,74.4401043 27.1564238,74.4140625 Z M26.7657988,67.5390625 L31.0236113,67.5390625 C31.2319457,67.5651043 31.349132,67.6822906 31.3751738,67.890625 C31.349132,68.1250012 31.2319457,68.2421875 31.0236113,68.2421875 L26.4923613,68.2421875 C26.2319434,68.6328145 26.0105914,68.9192699 25.8282988,69.1015625 C25.6199645,69.3098969 25.4246539,69.348959 25.2423613,69.21875 C25.0600688,69.0624992 25.0470481,68.8802094 25.2032988,68.671875 C25.5939258,68.281248 25.9194434,67.7343785 26.1798613,67.03125 C26.2319449,66.8749992 26.3751727,66.8229164 26.6095488,66.875 C26.8178832,66.9270836 26.9090281,67.0442699 26.8829863,67.2265625 C26.8569445,67.3307297 26.8178824,67.4348953 26.7657988,67.5390625 Z M24.9298613,68.8671875 L23.7579863,68.8671875 L23.7579863,70.078125 L24.5782988,70.078125 C25.0991348,70.078125 25.3465281,70.3255184 25.3204863,70.8203125 L25.3204863,71.953125 C25.3204863,73.6458418 25.2033,74.7135395 24.9689238,75.15625 C24.7605895,75.6770859 24.3048649,75.8984379 23.6017363,75.8203125 C23.3413184,75.7682289 23.1980906,75.6250012 23.1720488,75.390625 C23.1980906,75.130207 23.3413184,75.0130207 23.6017363,75.0390625 C24.0184051,75.1171879 24.2788192,74.9869809 24.3829863,74.6484375 C24.5131953,74.2838523 24.5782988,73.4114652 24.5782988,72.03125 L24.5782988,71.0546875 C24.5782988,70.8984367 24.5001746,70.8203125 24.3439238,70.8203125 L23.7189238,70.8203125 C23.7189238,72.7474055 23.406427,74.3619727 22.7814238,75.6640625 C22.6512149,75.8463551 22.468925,75.9114586 22.2345488,75.859375 C22.0522563,75.7552078 22.0001735,75.5989594 22.0782988,75.390625 C22.7293438,74.0364516 23.0418406,72.5130293 23.0157988,70.8203125 L23.0157988,68.8671875 L22.5079863,68.8671875 C22.299652,68.8671875 22.1824656,68.7500012 22.1564238,68.515625 C22.1824656,68.2812488 22.299652,68.1510418 22.5079863,68.125 L23.3673613,68.125 C23.3413195,68.0729164 23.2892367,67.9557301 23.2111113,67.7734375 C23.1069442,67.5911449 23.0548613,67.4609379 23.0548613,67.3828125 C22.9506942,67.2005199 23.0157977,67.0442715 23.2501738,66.9140625 C23.48455,66.8359371 23.6538192,66.8880199 23.7579863,67.0703125 C23.9142371,67.4088559 24.0574649,67.7604148 24.1876738,68.125 L24.9298613,68.125 C25.2684047,68.385418 25.2684047,68.6328113 24.9298613,68.8671875 Z M37.8001739,70.4079863 C37.7914932,70.3964121 37.7914932,70.390625 37.8001739,70.390625 L37.8001739,70.4079863 L37.8001739,70.4079863 Z M37.8001739,70.4079863 L37.8001739,75.78125 C37.4876723,76.1979187 37.2012168,76.184898 36.9407989,75.7421875 L36.9407989,68.1640625 L33.3079864,68.1640625 C33.0475684,68.1640625 32.9173614,68.0338555 32.9173614,67.7734375 C32.9173614,67.5130195 33.0475684,67.3697918 33.3079864,67.34375 L42.0189239,67.34375 C42.2533,67.3697918 42.3704864,67.5130195 42.3704864,67.7734375 C42.3444446,68.0338555 42.2142375,68.1640625 41.9798614,68.1640625 L37.8001739,68.1640625 L37.8001739,69.4921875 C39.571016,70.6380266 40.7298586,71.4713516 41.2767364,71.9921875 C41.4850707,72.2265637 41.5241328,72.4479156 41.3939239,72.65625 C41.2376731,72.8385426 41.0423625,72.8385426 40.8079864,72.65625 C39.3496457,71.5104109 38.3991344,70.807293 37.9564239,70.546875 C37.8696182,70.4774305 37.817535,70.4311344 37.8001739,70.4079863 L37.8001739,70.4079863 Z M47.8189239,67.5 L52.5845489,67.5 C52.7928832,67.5260418 52.9100696,67.6562488 52.9361114,67.890625 C52.9100696,68.1250012 52.7928832,68.2421875 52.5845489,68.2421875 L47.5845489,68.2421875 C47.2980891,68.815107 46.9725715,69.2708316 46.6079864,69.609375 C46.3736102,69.8437512 46.1652789,69.895834 45.9829864,69.765625 C45.8006938,69.6093742 45.8006938,69.401043 45.9829864,69.140625 C46.6861149,68.3854129 47.0897567,67.6562535 47.1939239,66.953125 C47.2460075,66.7708324 47.3892352,66.6796875 47.6236114,66.6796875 C47.8319457,66.7317711 47.9361114,66.8619781 47.9361114,67.0703125 C47.9361114,67.2265633 47.8970493,67.369791 47.8189239,67.5 Z M47.5064239,69.140625 L52.0767364,69.140625 C52.2850707,69.1666668 52.4022571,69.2968738 52.4282989,69.53125 C52.4022571,69.791668 52.2850707,69.921875 52.0767364,69.921875 L47.5064239,69.921875 C47.2980895,69.921875 47.1809032,69.791668 47.1548614,69.53125 C47.1809032,69.2968738 47.2980895,69.1666668 47.5064239,69.140625 Z M50.4751739,71.6015625 L46.5689239,71.6015625 C46.3345477,71.6015625 46.2173614,71.4713555 46.2173614,71.2109375 C46.2173614,70.9765613 46.3345477,70.8463543 46.5689239,70.8203125 L50.7095489,70.8203125 C51.334552,70.7942707 51.6470489,71.0416641 51.6470489,71.5625 C51.7251743,73.5156348 51.9725676,74.7005188 52.3892364,75.1171875 C52.4934036,75.0651039 52.5585071,74.7265656 52.5845489,74.1015625 C52.6105907,73.8671863 52.7538184,73.7760414 53.0142364,73.828125 C53.2225707,73.8802086 53.3267364,74.036457 53.3267364,74.296875 C53.1965274,75.572923 52.9230926,76.2109375 52.5064239,76.2109375 C51.5689192,76.0286449 51.0220497,74.622409 50.8657989,71.9921875 C50.8137153,71.7317695 50.6835082,71.6015625 50.4751739,71.6015625 Z M44.5767364,67.2265625 C44.9152797,67.4609387 45.3319422,67.7734355 45.8267364,68.1640625 C45.9829872,68.3463551 46.0090286,68.5416656 45.9048614,68.75 C45.7486106,68.9322926 45.5793414,68.9453133 45.3970489,68.7890625 C44.9282965,68.3984355 44.511634,68.0859387 44.1470489,67.8515625 C43.9387145,67.7213535 43.8866317,67.5520844 43.9907989,67.34375 C44.1210079,67.1874992 44.3163184,67.1484371 44.5767364,67.2265625 Z M44.3032989,69.921875 C44.667884,70.1041676 45.0715258,70.3515609 45.5142364,70.6640625 C45.7225707,70.8463551 45.7746536,71.0546863 45.6704864,71.2890625 C45.5402774,71.4973969 45.3710082,71.5234383 45.1626739,71.3671875 C44.7199633,71.0546859 44.3163215,70.7942719 43.9517364,70.5859375 C43.7694438,70.4817703 43.717361,70.3255219 43.7954864,70.1171875 C43.9256954,69.9088531 44.0949645,69.8437496 44.3032989,69.921875 Z M45.7486114,72.3828125 C45.8527786,72.1484363 46.0350684,72.0703121 46.2954864,72.1484375 C46.5038207,72.3046883 46.5559036,72.5130195 46.4517364,72.7734375 C45.9569422,73.9713602 45.3449692,74.9609336 44.6157989,75.7421875 C44.3814227,75.9505219 44.1600707,75.989584 43.9517364,75.859375 C43.7694438,75.6510406 43.7824645,75.4296887 43.9907989,75.1953125 C44.7199692,74.4661422 45.3059008,73.5286516 45.7486114,72.3828125 Z M58.9314239,67.1875 L58.5798614,68.0859375 L63.3454864,68.0859375 C63.6319461,68.1119793 63.7881946,68.2421863 63.8142364,68.4765625 C63.7881946,68.7369805 63.6319461,68.8671875 63.3454864,68.8671875 L58.2673614,68.8671875 L57.1345489,71.1328125 L59.3611114,71.1328125 L59.3611114,69.8046875 C59.3611114,69.5963531 59.4913184,69.4791668 59.7517364,69.453125 C60.0121543,69.4791668 60.1553821,69.5963531 60.1814239,69.8046875 L60.1814239,71.1328125 L62.9548614,71.1328125 C63.2152793,71.1588543 63.3585071,71.2890613 63.3845489,71.5234375 C63.3585071,71.7838555 63.2283001,71.9140625 62.9939239,71.9140625 L60.1814239,71.9140625 L60.1814239,73.1640625 L63.6970489,73.1640625 C63.9835086,73.1901043 64.1267364,73.333332 64.1267364,73.59375 C64.1006946,73.8281262 63.9444461,73.9453125 63.6579864,73.9453125 L60.1814239,73.9453125 L60.1814239,75.78125 C60.1553821,76.041668 60.0251751,76.1979164 59.7907989,76.25 C59.5043391,76.2760418 59.3611114,76.1718762 59.3611114,75.9375 L59.3611114,73.9453125 L54.9861114,73.9453125 C54.7517352,73.9453125 54.6475696,73.8151055 54.6736114,73.5546875 C54.6996532,73.3203113 54.8298602,73.1901043 55.0642364,73.1640625 L59.3611114,73.1640625 L59.3611114,71.875 L56.6267364,71.875 C56.1319422,71.8489582 56.0017352,71.5885441 56.2361114,71.09375 L57.3689239,68.8671875 L55.3376739,68.8671875 C55.1293395,68.8671875 55.0121532,68.7369805 54.9861114,68.4765625 C55.0121532,68.2421863 55.1293395,68.1119793 55.3376739,68.0859375 L57.6814239,68.0859375 L58.1892364,66.9140625 C58.2934036,66.6796863 58.4626727,66.6015621 58.6970489,66.6796875 C58.9314251,66.7838547 59.0095493,66.9531238 58.9314239,67.1875 Z M74.1845489,68.515625 L65.8642364,68.515625 C65.655902,68.515625 65.5387157,68.385418 65.5126739,68.125 C65.5387157,67.8906238 65.655902,67.7604168 65.8642364,67.734375 L69.6142364,67.734375 C69.5100692,67.5520824 69.4189243,67.3828133 69.3407989,67.2265625 C69.2105899,67.0182281 69.249652,66.848959 69.4579864,66.71875 C69.6663208,66.6145828 69.8616313,66.6666656 70.0439239,66.875 L70.4736114,67.734375 L74.1845489,67.734375 C74.4189251,67.7604168 74.5361114,67.8906238 74.5361114,68.125 C74.5361114,68.385418 74.4189251,68.515625 74.1845489,68.515625 Z M68.0907989,69.1015625 C68.2470497,68.8932281 68.4293395,68.854166 68.6376739,68.984375 C68.8460083,69.1406258 68.8850704,69.3359363 68.7548614,69.5703125 C68.6506942,69.7526051 68.4684044,70.0130191 68.2079864,70.3515625 C68.8850731,71.6796941 69.4970462,72.5781227 70.0439239,73.046875 C71.059554,72.1874957 71.7366305,71.210943 72.0751739,70.1171875 C71.8668395,69.9348949 71.671529,69.7395844 71.4892364,69.53125 C71.3329856,69.3749992 71.3329856,69.1927094 71.4892364,68.984375 C71.6975708,68.8020824 71.8928813,68.776041 72.0751739,68.90625 C73.0647622,69.8697965 73.8980872,70.8203078 74.5751739,71.7578125 C74.7053829,72.0182305 74.6923622,72.2395824 74.5361114,72.421875 C74.3017352,72.5781258 74.1064247,72.5520844 73.9501739,72.34375 C73.5855887,71.8749977 73.1819469,71.3541695 72.7392364,70.78125 C72.3225676,71.7968801 71.6585118,72.7343707 70.7470489,73.59375 C71.762679,74.3489621 73.0126665,74.8567695 74.4970489,75.1171875 C74.7574669,75.1953129 74.8616325,75.3776027 74.8095489,75.6640625 C74.7314235,75.9244805 74.5491337,76.0286461 74.2626739,75.9765625 C72.6480825,75.6119773 71.267888,75.013025 70.1220489,74.1796875 C68.7678755,75.013025 67.3616395,75.5989566 65.9032989,75.9375 C65.5907973,75.9635418 65.4085075,75.8463555 65.3564239,75.5859375 C65.3303821,75.2994777 65.4605891,75.1302086 65.7470489,75.078125 C66.892888,74.9739578 68.116834,74.4921918 69.4189239,73.6328125 C68.7157954,72.9036422 68.116843,72.0442758 67.6220489,71.0546875 C67.0491294,71.6536488 66.5283012,72.0963527 66.0595489,72.3828125 C65.8251727,72.5390633 65.6428829,72.5260426 65.5126739,72.34375 C65.3824649,72.1093738 65.421527,71.9010426 65.6298614,71.71875 C66.6194497,71.0677051 67.439754,70.195318 68.0907989,69.1015625 Z M84.6720489,67.890625 L84.6720489,70.0390625 C84.6720489,70.5338566 84.4116348,70.78125 83.8907989,70.78125 L80.0236114,70.78125 C79.9975696,70.8333336 79.9715282,70.8723957 79.9454864,70.8984375 C79.7892356,71.1848973 79.6460079,71.3802078 79.5157989,71.484375 L84.4376739,71.484375 C85.0366352,71.5104168 85.3491321,71.7968723 85.3751739,72.34375 L85.3751739,73.1640625 C85.4272575,75.533866 84.4507048,76.4062531 82.4454864,75.78125 C82.2111102,75.6770828 82.0939239,75.5078137 82.0939239,75.2734375 C82.1460075,75.0911449 82.3022559,75 82.5626739,75 C83.9949727,75.5468777 84.68507,74.9479254 84.6329864,73.203125 L84.6329864,72.4609375 C84.6069446,72.2786449 84.5157997,72.1744793 84.3595489,72.1484375 L83.6564239,72.1484375 C83.0574626,73.8411543 81.5600817,75.0911418 79.1642364,75.8984375 C78.9038184,75.9505211 78.7215286,75.8723969 78.6173614,75.6640625 C78.539236,75.4036445 78.6173602,75.2343754 78.8517364,75.15625 C80.9871637,74.4791633 82.3282962,73.4765691 82.8751739,72.1484375 L81.3517364,72.1484375 C80.5183989,73.4765691 78.9689352,74.4531219 76.7032989,75.078125 C76.4689227,75.1302086 76.3126743,75.0651051 76.2345489,74.8828125 C76.1564235,74.6223945 76.2345477,74.4531254 76.4689239,74.375 C78.3699751,73.8802059 79.6980868,73.1380258 80.4532989,72.1484375 L78.8517364,72.1484375 C78.1225661,72.721357 77.3543446,73.1119781 76.5470489,73.3203125 C76.3387145,73.3723961 76.1954868,73.2942719 76.1173614,73.0859375 C76.0652778,72.8515613 76.1303813,72.6822922 76.3126739,72.578125 C77.5366384,72.2395816 78.4611083,71.6406293 79.0861114,70.78125 L78.0704864,70.78125 C77.4975669,70.8072918 77.2241321,70.5598984 77.2501739,70.0390625 L77.2501739,67.890625 C77.2501739,67.3958309 77.5496501,67.1354168 78.1486114,67.109375 L83.9298614,67.109375 C84.4246555,67.1354168 84.6720489,67.3958309 84.6720489,67.890625 Z M77.9532989,68.046875 L77.9532989,68.6328125 L83.9689239,68.6328125 L83.9689239,68.046875 C83.9428821,67.9427078 83.8777786,67.8776043 83.7736114,67.8515625 L78.1876739,67.8515625 C78.0314231,67.8776043 77.9532989,67.9427078 77.9532989,68.046875 Z M83.9689239,69.296875 L77.9532989,69.296875 L77.9532989,69.84375 C77.9532989,69.973959 78.0314231,70.0390625 78.1876739,70.0390625 L83.7736114,70.0390625 C83.9038204,70.0651043 83.9689239,70.0130215 83.9689239,69.8828125 L83.9689239,69.296875 Z M95.4329864,68.125 L92.0345489,68.125 L92.0345489,72.2265625 L95.9017364,72.2265625 C96.1621544,72.2526043 96.3053821,72.3828113 96.3314239,72.6171875 C96.3053821,72.8776055 96.1621544,73.0078125 95.9017364,73.0078125 L92.0345489,73.0078125 L92.0345489,75.703125 C92.0085071,75.9375012 91.8652794,76.0546875 91.6048614,76.0546875 C91.3444434,76.0546875 91.2142364,75.9375012 91.2142364,75.703125 L91.2142364,73.0078125 L87.4251739,73.0078125 C87.1647559,73.0078125 87.0215282,72.8776055 86.9954864,72.6171875 C87.0215282,72.3828113 87.1647559,72.2526043 87.4251739,72.2265625 L91.2142364,72.2265625 L91.2142364,68.125 L87.8939239,68.125 C87.6074642,68.125 87.4512157,68.0078137 87.4251739,67.7734375 C87.4512157,67.5130195 87.5944434,67.3697918 87.8548614,67.34375 L95.4720489,67.34375 C95.7064251,67.3697918 95.8236114,67.5130195 95.8236114,67.7734375 C95.7975696,68.0078137 95.6673626,68.125 95.4329864,68.125 Z M88.9486114,68.7109375 C89.130904,69.0755227 89.4043388,69.7265578 89.7689239,70.6640625 C89.8730911,70.9244805 89.964236,71.1458324 90.0423614,71.328125 C90.1204868,71.6145848 90.0423626,71.822916 89.8079864,71.953125 C89.5736102,72.0312504 89.4043411,71.9401055 89.3001739,71.6796875 C88.9355888,70.6900992 88.5710091,69.8437535 88.2064239,69.140625 C88.0762149,68.9062488 88.115277,68.7109383 88.3236114,68.5546875 C88.5840294,68.4505203 88.7923606,68.5026031 88.9486114,68.7109375 Z M94.1048614,68.7890625 C94.156945,68.5286445 94.3131934,68.4244789 94.5736114,68.4765625 C94.8079876,68.5807297 94.8991325,68.7630195 94.8470489,69.0234375 C94.456422,70.2994855 94.104863,71.2109348 93.7923614,71.7578125 C93.6361106,72.0182305 93.4408001,72.1093754 93.2064239,72.03125 C92.9720477,71.901041 92.9329856,71.7057305 93.0892364,71.4453125 C93.4798634,70.611975 93.8184017,69.7265672 94.1048614,68.7890625 Z M101.506424,66.9140625 C101.688717,66.7057281 101.897048,66.7057281 102.131424,66.9140625 C102.287675,67.1223969 102.274654,67.3307281 102.092361,67.5390625 C101.415275,68.1901074 100.516846,68.8802047 99.3970489,69.609375 C101.272058,69.6614586 103.277247,69.6354172 105.412674,69.53125 C105.022047,69.140623 104.566322,68.7109398 104.045486,68.2421875 C103.837152,68.0859367 103.811111,67.9036469 103.967361,67.6953125 C104.175696,67.5390617 104.384027,67.526041 104.592361,67.65625 C105.347574,68.3072949 106.193919,69.1406199 107.131424,70.15625 C107.287675,70.3385426 107.274654,70.5338531 107.092361,70.7421875 C106.910069,70.8984383 106.727779,70.8984383 106.545486,70.7421875 C106.467361,70.6380203 106.324133,70.4687512 106.115799,70.234375 C105.022043,70.3125004 103.719973,70.3645832 102.209549,70.390625 C100.77725,70.4166668 99.5793454,70.4036461 98.6157989,70.3515625 C98.2772556,70.3515625 98.0689243,70.2473969 97.9907989,70.0390625 C97.9387153,69.8046863 98.042881,69.5963551 98.3032989,69.4140625 C99.6574724,68.580725 100.72517,67.7474 101.506424,66.9140625 Z M99.5923614,71.3671875 L105.490799,71.3671875 C106.011635,71.3932293 106.28507,71.7057262 106.311111,72.3046875 L106.311111,75.1171875 C106.337153,75.6640652 106.024656,75.9244793 105.373611,75.8984375 L99.8657989,75.8984375 C99.1366286,75.9244793 98.7980903,75.5989617 98.8501739,74.921875 L98.8501739,72.0703125 C98.8762157,71.627602 99.1236091,71.3932293 99.5923614,71.3671875 Z M99.6704864,72.5 L99.6704864,74.6875 C99.6704864,74.947918 99.8137142,75.078125 100.100174,75.078125 L105.100174,75.078125 C105.360592,75.078125 105.490799,74.9348973 105.490799,74.6484375 L105.490799,72.65625 C105.464757,72.3437484 105.321529,72.1744793 105.061111,72.1484375 L100.139236,72.1484375 C99.7746513,72.1223957 99.6184028,72.239582 99.6704864,72.5 Z" id="易鑫旗下汽车交易平台" fill="#999999"></path>
                <g id="Page-1">
                    <path d="M88.5897513,56 C88.3570034,57.7304272 86.833183,59.1314578 85.1833344,59.1314578 C83.5355731,59.1314578 82.3854019,57.7304272 82.6168451,56 C82.8485493,54.2695728 84.3741962,52.8685422 86.023523,52.8685422 C87.6723279,52.8685422 88.8214555,54.2695728 88.5897513,56 M86.4073483,50 C83.2469866,50 80.325896,52.6863344 79.8812745,56 C79.4366529,59.3125712 81.6388865,62 84.79977,62 C87.9601317,62 90.8814832,59.3125712 91.3263656,56 C91.7694216,52.6863344 89.56771,50 86.4073483,50 M76.4704218,59.1314578 C74.8891972,59.1314578 73.796952,57.7304272 74.0286562,56 C74.2624478,54.2695728 75.7304296,52.8674479 77.3095667,52.8674479 C78.1121817,52.8674479 78.7869418,53.2304956 79.2286932,53.8118645 L80.8007853,51.1616433 C79.9514641,50.4341799 78.8459116,50 77.5824975,50 C74.4231796,50 71.5010453,52.6863344 71.0569456,56 C70.6128459,59.3125712 72.8145576,62 75.975963,62 C77.239377,62 78.4613035,61.5647257 79.505277,60.8372623 L78.6431704,58.1870412 C78.0459059,58.7695044 77.2725149,59.1314578 76.4704218,59.1314578 M103.024296,50.6363595 L101.089775,50.6363595 L100.425974,51.7282386 C99.6525827,50.9132279 98.416827,50.6363595 97.2301258,50.6363595 L95.7738858,50.6363595 L95.8299854,50.2147645 L92.8590576,50.6970954 L91.3769857,61.7480279 L94.2852908,61.7480279 L95.5346147,52.4198623 L96.1496224,52.4198623 C98.2767086,52.4198623 98.2994093,54.3010351 98.1418087,55.4782728 L97.3008373,61.7480279 L100.207577,61.7480279 L101.153963,54.6821394 C101.281557,53.7330719 101.16701,52.9943915 100.893557,52.4198623 L101.942227,52.4198623 C104.070357,52.4198623 104.092536,54.3010351 103.933631,55.4782728 L103.0029,61.7480279 L106.000182,61.7480279 L106.947612,54.6821394 C107.373968,51.4967854 105.11981,50.6363595 103.024296,50.6363595" id="Fill-1" fill="#F29519"></path>
                    <path d="M7.73349647,56.5992509 L8.18702212,53.253344 L11.0256229,53.253344 L11.3222085,51.0599251 L8.48464026,51.0599251 L8.69733527,49.4909042 L5.24646198,50.0438737 L5.10862323,51.0599251 L3.29787626,51.0599251 L3,53.253344 L4.81126321,53.253344 L4.23745131,57.488764 C3.75527379,61.0411985 6.29857953,62 8.66558589,62 L9.18674029,62 L10.0648816,60.0109684 L9.98124908,60.0109684 C7.58120272,60.0109684 7.55642272,57.9130551 7.73349647,56.5992509 M60.7490184,52.5893526 C61.9250359,52.4925094 62.8656435,53.3820225 63.1457091,54.7025147 L57.9749489,55.5184591 C58.3208364,53.947298 59.4632977,52.6950241 60.7490184,52.5893526 M60.3522802,59.4403424 C59.1757464,59.5382558 58.2348807,58.6487426 57.9548151,57.3282504 L65.9401705,56.0692884 L66.2047486,56.0275548 C66.2264311,55.8681113 66.2465649,55.7075976 66.2561155,55.5460139 C66.4440305,52.3146067 64.041661,49.9066346 60.8896965,50.1672017 C57.737732,50.4266988 55.0341306,53.2568218 54.8475062,56.4871589 C54.6606237,59.7153558 57.0593794,62.1230605 60.2123765,61.8627608 C62.3584278,61.6867309 64.2966885,60.3156768 65.3746186,58.4408775 L62.7053478,57.6570358 C62.1754172,58.6554307 61.3045034,59.3624933 60.3522802,59.4403424 M19.266522,55.917603 C19.037307,57.6096843 17.5272757,58.9796683 15.8959256,58.9796683 C14.2653499,58.9796683 13.1290836,57.6096843 13.3588149,55.917603 C13.5877718,54.2255217 15.0962543,52.8555377 16.7273463,52.8555377 C18.3584382,52.8555377 19.4962533,54.2255217 19.266522,55.917603 M21.510919,56.9336544 L22.9855872,50.252809 L19.6069889,50.711343 C18.8875945,50.2934724 18.0437838,50.0505618 17.108855,50.0505618 C13.982703,50.0505618 11.0922191,52.6773676 10.6508254,55.917603 C10.2135616,59.1567683 12.3913623,61.7846442 15.5177725,61.7846442 C16.679335,61.7846442 17.8039857,61.4141252 18.7864095,60.7915998 C19.4128789,61.2744783 20.2752746,61.4855538 21.1547065,61.5283574 L21.1580621,61.524077 L22.0132303,59.5810594 C21.2169146,58.9983949 21.3237784,57.7835741 21.510919,56.9336544 M31.2992776,55.917603 C31.0692882,57.6096843 29.559515,58.9796683 27.9294556,58.9796683 C26.2975892,58.9796683 25.1602904,57.6096843 25.3905379,55.917603 C25.6194948,54.2255217 27.1277193,52.8555377 28.7588112,52.8555377 C30.3909357,52.8555377 31.5287507,54.2255217 31.2992776,55.917603 M29.1392875,50.0505618 C26.0128773,50.0505618 23.1231678,52.6773676 22.6835809,55.917603 C22.2450265,59.1567683 24.4225691,61.7846442 27.5489793,61.7846442 C30.6764219,61.7846442 33.5671639,59.1567683 34.0054602,55.917603 C34.4450471,52.6773676 32.2667301,50.0505618 29.1392875,50.0505618 M50.3259304,50.6728197 L48.2684159,50.6728197 L48.6305653,48 L45.6915539,48.4705725 L43.9197838,61.5382558 L46.7952965,61.5382558 L48.0317153,52.4168004 L49.2570347,52.4168004 C51.3612698,52.4168004 51.3832104,54.2562868 51.2265285,55.4074371 L50.395366,61.5382558 L53.2713949,61.5382558 L54.2081306,54.628946 C54.6304231,51.5139112 52.3999648,50.6728197 50.3259304,50.6728197 M40.1782618,58.9796683 C38.6147986,58.9796683 37.5335129,57.6096843 37.762986,55.917603 C37.9919429,54.2255217 39.4459611,52.8544676 41.0091662,52.8544676 C41.8029006,52.8544676 42.4709281,53.2094703 42.9074175,53.7779561 L44.4621045,51.1864633 C43.6221657,50.4748529 42.5287481,50.0505618 41.2794231,50.0505618 C38.1527548,50.0505618 35.260464,52.6773676 34.8229421,55.917603 C34.3823227,59.1567683 36.5624466,61.7846442 39.6883405,61.7846442 C40.9384399,61.7846442 42.1472394,61.3590155 43.1802557,60.6487426 L42.3276687,58.0561798 C41.7365625,58.6257357 40.9722543,58.9796683 40.1782618,58.9796683 M68.3657712,57.8868379 C67.3275924,57.8868379 66.3671093,58.7597646 66.2212686,59.8362761 C66.0764605,60.91145 66.7999849,61.7846442 67.8384218,61.7846442 C68.8760844,61.7846442 69.8360513,60.91145 69.9813757,59.8362761 C70.1269582,58.7597646 69.4031756,57.8868379 68.3657712,57.8868379" id="Fill-3" fill="#22478B"></path>
                    <g id="Group-7">
                        <mask id="mask-2" fill="white">
                            <use xlink:href="#path-1"></use>
                        </mask>
                        <g id="Clip-6"></g>
                        <path d="M74.9976463,9.06933873 L105.104143,9.06933873 C107.151458,9.06933873 107.846302,4.29730405 107.846302,4.29730405 L76.6129619,4.29730405 C77.034292,3.05397457 77.4967402,1.68673757 78.0122776,0.163951445 L68.9475643,0.163951445 C68.4333282,1.68301503 67.9700993,3.05025202 67.5477282,4.29730405 L61.9637378,4.29730405 L61.3084511,9.06933873 L65.9311113,9.06933873 C63.7536752,15.4979052 63.3823113,16.5904717 62.8555836,18.1403792 C61.0661667,23.4040555 62.7509667,26.8285295 69.7150149,26.8285295 L82.4889427,26.8285295 L81.375892,34.9237318 L57.5703499,34.9237318 L56.9150631,39.6957665 L80.7195643,39.6957665 L79.9214053,45.4978821 L88.9861186,45.4978821 L89.7842776,39.6957665 L101.794398,39.6957665 C103.842234,39.6957665 104.537078,34.9237318 104.537078,34.9237318 L90.4406053,34.9237318 L91.5541764,26.8285295 L101.39727,26.8285295 C103.444586,26.8285295 104.139169,22.0564948 104.139169,22.0564948 L92.2107643,22.0564948 L93.0807499,15.7273734 L84.0165571,15.7273734 L83.1455306,22.0564948 L75.5509186,22.0564948 C72.1644029,22.0564948 71.1250005,20.4797318 72.2039595,17.3113156 C72.5818294,16.1969457 72.8735595,15.3396971 74.9976463,9.06933873 M14.8668896,14.7842405 L20.3015017,14.7842405 L17.3342342,2.13317688 L7.96243663,2.13317688 C7.96243663,2.13317688 11.6406824,14.7842405 14.8668896,14.7842405 M13.8774535,18.8625526 L6.50664867,18.8625526 C6.50664867,18.8625526 8.7322294,21.3244832 9.68445108,23.2275006 C11.37888,26.6128879 10.8196222,28.5403676 7.35399325,34.0898821 C3.07823422,40.9329803 0.000104096386,44.7142867 0.000104096386,44.7142867 L10.9018583,44.7142867 C10.9018583,44.7142867 14.6730101,38.058911 16.4358824,33.2634775 C18.0993427,28.7389919 18.6140993,25.9997318 16.4358824,22.4024254 C14.9441812,19.9303908 13.8774535,18.8625526 13.8774535,18.8625526 M36.5272655,3.65596301 L33.49728,3.65596301 C34.5382439,1.70402081 35.2432366,0.165015029 35.2432366,0.165015029 L26.1839884,0.165015029 L21.6729716,11.6846913 L26.945974,11.6846913 C28.0069764,11.6846913 29.3438342,10.2672 30.632027,8.42799769 L34.8005667,8.42799769 C44.4591499,8.42799769 46.774774,12.1468185 45.5326439,21.1761133 C45.3249716,22.6842751 44.3558342,29.7310497 44.001386,32.3083792 C42.7844993,41.1547376 36.2207017,43.2050613 36.2207017,43.2050613 L40.5433041,45.8999168 C40.5433041,45.8999168 50.0868607,44.7951191 51.9684029,31.112911 C52.3262342,28.5121827 53.274292,21.6188301 53.5610776,19.5294197 C55.2349475,7.36122312 49.3764029,3.65596301 36.5272655,3.65596301 M41.4283836,34.2015584 C41.4848559,33.7894197 41.6779547,32.3844254 41.6779547,32.3844254 L36.2914872,32.3844254 C36.2914872,32.3844254 36.1444511,33.4559861 36.0918824,33.8372809 C35.9549957,34.8317318 35.50608,35.3661827 34.5033716,35.3661827 L33.9063788,35.3661827 L34.7368077,29.3324717 L40.3465619,29.3324717 C42.3943981,29.3324717 43.0892414,24.560437 43.0892414,24.560437 L35.3933957,24.560437 L36.0184945,20.0223908 L42.6007692,20.0223908 L42.3535402,15.2503561 L29.9600848,15.2503561 C30.1971643,14.4779283 30.3374342,13.9615584 30.3374342,13.9615584 L23.3861378,13.9615584 L21.5985427,22.1253618 L26.3838535,22.1253618 C26.9605475,22.1253618 27.5892896,21.2239746 28.1732704,20.0223908 L29.033627,20.0223908 L28.4090487,24.560437 L20.7142439,24.560437 L20.0576559,29.3324717 L27.7524607,29.3324717 L26.923333,35.3661827 L26.3268607,35.3661827 C25.3246728,35.3661827 25.022533,34.8317318 25.1591595,33.8372809 C25.2060029,33.4987954 25.3595451,32.3844254 25.3595451,32.3844254 L19.9725571,32.3844254 C19.9725571,32.3844254 19.7794583,33.7894197 19.722986,34.2015584 C19.2428414,37.6885179 20.6817137,39.5535121 23.9748029,39.5535121 L25.1172607,39.5535121 L34.5616655,39.5535121 L35.7041234,39.5535121 C38.9964318,39.5535121 40.9484993,37.6885179 41.4283836,34.2015584" id="Fill-5" fill="#22478B" mask="url(#mask-2)"></path>
                    </g>
                </g>
            </g>
        </g>
    </g>
</svg>